<svg xmlns="http://www.w3.org/2000/svg" version="1.1" width="871px" height="871px" style="shape-rendering:geometricPrecision; text-rendering:geometricPrecision; image-rendering:optimizeQuality; fill-rule:evenodd; clip-rule:evenodd" xmlns:xlink="http://www.w3.org/1999/xlink">
<g><path style="opacity:0.995" fill="#212529" d="M 405.5,-0.5 C 425.167,-0.5 444.833,-0.5 464.5,-0.5C 608.169,12.8055 720.336,78.8055 801,197.5C 842.094,262.283 865.261,332.95 870.5,409.5C 870.5,426.167 870.5,442.833 870.5,459.5C 857.982,608.363 789.648,723.529 665.5,805C 600.664,844.668 530.331,866.502 454.5,870.5C 441.5,870.5 428.5,870.5 415.5,870.5C 272.639,860.506 159.473,797.839 76,682.5C 30.2728,615.153 4.77281,540.82 -0.5,459.5C -0.5,442.833 -0.5,426.167 -0.5,409.5C 10.5012,273.303 70.1678,164.136 178.5,82C 246.478,33.6158 322.145,6.11582 405.5,-0.5 Z"/></g>
<g><path style="opacity:1" fill="#f8b333" d="M 405.5,37.5 C 502.924,32.8471 591.59,58.0138 671.5,113C 765.716,184.548 818.549,279.715 830,398.5C 836.04,494.027 812.04,581.027 758,659.5C 735.167,690.333 708.333,717.167 677.5,740C 676.241,740.982 674.908,741.315 673.5,741C 651.867,717.032 629.867,693.366 607.5,670C 631.182,671.192 654.849,672.525 678.5,674C 663.833,662 649.167,650 634.5,638C 654.285,632.387 674.285,627.387 694.5,623C 694.833,622.667 695.167,622.333 695.5,622C 689.5,617.667 683.5,613.333 677.5,609C 696.052,603.151 714.719,597.484 733.5,592C 723.327,586.079 712.994,580.413 702.5,575C 701.167,574.333 701.167,573.667 702.5,573C 729.418,563.365 756.085,553.365 782.5,543C 780.848,540.677 779.181,538.344 777.5,536C 735.843,507.836 693.843,480.17 651.5,453C 629.425,439.191 605.759,428.858 580.5,422C 564.158,416.206 547.324,413.039 530,412.5C 526.627,412.561 523.293,412.894 520,413.5C 519.055,413.095 518.388,412.428 518,411.5C 516.926,405.048 515.426,398.715 513.5,392.5C 506.176,406.483 498.343,420.15 490,433.5C 479.262,450.041 478.929,466.708 489,483.5C 499.177,498.521 509.844,513.188 521,527.5C 527.337,535.178 534.837,541.345 543.5,546C 551.489,549.531 559.822,550.865 568.5,550C 585.819,544.677 603.153,539.343 620.5,534C 637.199,530.996 653.866,527.829 670.5,524.5C 673.729,525.983 674.063,527.816 671.5,530C 645.044,536.197 618.711,542.864 592.5,550C 579.686,553.827 567.352,558.827 555.5,565C 601.082,557.026 646.748,549.193 692.5,541.5C 692.357,543.262 692.691,544.929 693.5,546.5C 650.548,555.154 607.548,563.654 564.5,572C 561.99,572.376 559.657,573.21 557.5,574.5C 558.452,576.512 560.119,577.512 562.5,577.5C 598.806,573.503 635.139,569.836 671.5,566.5C 671.5,568.5 671.5,570.5 671.5,572.5C 633.842,576.916 596.175,581.249 558.5,585.5C 558.5,588.167 558.5,590.833 558.5,593.5C 590.5,593.5 622.5,593.5 654.5,593.5C 654.5,594.833 654.5,596.167 654.5,597.5C 625.137,597.067 595.804,597.567 566.5,599C 559.362,600.572 552.696,603.238 546.5,607C 537.848,613.653 529.848,620.986 522.5,629C 507.871,639.544 491.538,645.544 473.5,647C 447.155,650.072 420.822,650.072 394.5,647C 376.838,644.165 360.838,637.498 346.5,627C 338.13,618.962 329.464,611.295 320.5,604C 311.361,598.757 301.528,595.924 291,595.5C 280.845,596.486 270.678,596.652 260.5,596C 256.724,595.408 253.057,594.408 249.5,593C 270.429,590.778 291.429,589.612 312.5,589.5C 312.5,587.5 312.5,585.5 312.5,583.5C 286.24,578.115 259.906,573.115 233.5,568.5C 233.5,566.833 233.5,565.167 233.5,563.5C 261.178,567.418 288.845,571.418 316.5,575.5C 316.519,573.94 316.852,572.44 317.5,571C 317.095,570.055 316.428,569.388 315.5,569C 287.196,562.206 258.863,555.539 230.5,549C 228.717,547.933 228.217,546.433 229,544.5C 229.725,543.941 230.558,543.608 231.5,543.5C 260.422,549.315 289.422,554.648 318.5,559.5C 318.785,555.962 317.118,554.129 313.5,554C 284.901,545.855 256.234,538.022 227.5,530.5C 227.833,528.5 228.167,526.5 228.5,524.5C 258.075,531.394 287.409,539.227 316.5,548C 321.589,548.826 326.589,548.492 331.5,547C 335.299,544.203 338.799,541.036 342,537.5C 354.621,521.21 367.621,505.21 381,489.5C 389.021,479.434 391.688,468.101 389,455.5C 380.72,434.259 369.387,414.925 355,397.5C 354.639,402.77 355.139,407.937 356.5,413C 331.398,406.559 307.064,408.892 283.5,420C 258.195,432.316 233.529,445.65 209.5,460C 166.332,486.75 123.332,513.75 80.5,541C 109.035,552.098 137.702,562.931 166.5,573.5C 156.664,579.586 146.664,585.419 136.5,591C 155.302,597.454 174.302,603.454 193.5,609C 187.283,613.268 181.283,617.768 175.5,622.5C 194.905,627.247 214.238,632.247 233.5,637.5C 227.384,645.118 220.717,652.285 213.5,659C 229.884,657.159 246.218,654.659 262.5,651.5C 264.4,652.447 265.733,653.947 266.5,656C 243.654,667.589 220.654,678.923 197.5,690C 211.163,690.5 224.829,690.667 238.5,690.5C 239.052,692.331 239.052,693.997 238.5,695.5C 221.641,704.427 204.974,713.594 188.5,723C 199.477,725.774 210.477,728.44 221.5,731C 215.833,736 210.167,741 204.5,746C 203.167,746.667 201.833,746.667 200.5,746C 152.902,715.069 115.736,674.569 89,624.5C 33.7013,519.25 24.7013,410.25 62,297.5C 109.437,176.729 194.604,95.5624 317.5,54C 346.479,45.8194 375.813,40.3194 405.5,37.5 Z"/></g>
<g><path style="opacity:1" fill="#212529" d="M 525.5,169.5 C 525.167,193.176 525.5,216.843 526.5,240.5C 527.107,240.376 527.44,240.043 527.5,239.5C 540.994,226.173 554.661,213.006 568.5,200C 594.953,180.884 621.953,162.551 649.5,145C 659.297,139.438 667.797,140.938 675,149.5C 691.209,181.674 697.209,215.674 693,251.5C 689.854,269.457 682.188,285.124 670,298.5C 673.074,287.073 675.407,275.407 677,263.5C 679.048,246.838 676.715,230.838 670,215.5C 667.051,210.062 663.551,205.062 659.5,200.5C 653.595,240.738 648.762,281.071 645,321.5C 668.422,333.794 691.922,345.961 715.5,358C 702.752,360.058 690.086,362.391 677.5,365C 698.003,377.75 718.336,390.75 738.5,404C 725.85,405.08 713.183,406.08 700.5,407C 724.531,435.025 747.031,464.192 768,494.5C 768.688,495.332 768.521,495.998 767.5,496.5C 713.993,450.492 656.993,409.326 596.5,373C 580.942,364.386 564.609,357.72 547.5,353C 516.967,346.187 493.467,356.02 477,382.5C 471.707,391.374 467.374,400.707 464,410.5C 455.252,438.411 445.919,466.078 436,493.5C 425.667,463.167 415.333,432.833 405,402.5C 387.292,355.572 354.792,341.072 307.5,359C 271.043,373.888 237.043,392.888 205.5,416C 175.213,439.286 145.213,462.952 115.5,487C 111.952,488.941 108.286,490.607 104.5,492C 102.741,492.798 101.074,492.631 99.5,491.5C 109.516,477.473 120.016,463.806 131,450.5C 145.529,435.637 160.362,421.137 175.5,407C 162.5,406.667 149.5,406.333 136.5,406C 135.707,404.915 135.04,403.748 134.5,402.5C 154.033,389.803 173.7,377.303 193.5,365C 181.081,362.986 168.748,360.653 156.5,358C 178.978,345.927 201.644,334.093 224.5,322.5C 225.659,318.878 225.825,315.211 225,311.5C 220.363,274.788 215.529,238.121 210.5,201.5C 196.502,217.133 191.002,235.467 194,256.5C 194.585,261.511 195.251,266.511 196,271.5C 198.835,282.323 201.835,292.989 205,303.5C 184.416,283.432 174.582,258.932 175.5,230C 176.743,200.611 183.91,172.778 197,146.5C 199.691,143.072 203.191,141.072 207.5,140.5C 212.025,141.428 216.358,142.928 220.5,145C 257.925,169.716 293.925,196.382 328.5,225C 332.252,227.293 336.086,229.46 340,231.5C 337,216.833 334,202.167 331,187.5C 345.333,199.833 359.667,212.167 374,224.5C 370.421,204.442 366.254,184.442 361.5,164.5C 362.212,162.954 363.378,161.954 365,161.5C 379.928,179.105 394.928,196.772 410,214.5C 410.014,194.131 409.18,173.798 407.5,153.5C 409.46,152.862 411.293,152.862 413,153.5C 423.743,177.317 434.743,200.984 446,224.5C 457.167,202.167 468.333,179.833 479.5,157.5C 482.514,155.92 484.514,156.753 485.5,160C 484.179,178.819 483.345,197.652 483,216.5C 495.407,201.349 507.574,186.015 519.5,170.5C 521.396,169.534 523.396,169.201 525.5,169.5 Z"/></g>
<g><path style="opacity:1" fill="#b68740" d="M 525.5,169.5 C 526.167,192.833 526.833,216.167 527.5,239.5C 527.44,240.043 527.107,240.376 526.5,240.5C 525.5,216.843 525.167,193.176 525.5,169.5 Z"/></g>
<g><path style="opacity:1" fill="#f6b233" d="M 340.5,439.5 C 343.794,439.259 346.794,440.092 349.5,442C 355.009,446.677 360.342,451.51 365.5,456.5C 360.31,460.858 354.977,465.024 349.5,469C 342.703,472.949 336.87,471.783 332,465.5C 327.418,460.845 326.418,455.512 329,449.5C 332.435,445.555 336.268,442.222 340.5,439.5 Z"/></g>
<g><path style="opacity:1" fill="#f5b133" d="M 528.5,439.5 C 531.425,439.46 534.091,440.293 536.5,442C 542.335,446.34 548.002,450.84 553.5,455.5C 547.336,460.826 541.003,465.992 534.5,471C 525.604,471.474 519.104,467.641 515,459.5C 513.886,454.959 514.886,450.959 518,447.5C 521.299,444.449 524.799,441.782 528.5,439.5 Z"/></g>
<g><path style="opacity:1" fill="#222529" d="M 424.5,557.5 C 440.823,556.164 456.489,558.664 471.5,565C 485.223,574.602 488.389,587.102 481,602.5C 472.613,623.959 456.78,634.293 433.5,633.5C 408.044,631.885 392.544,618.551 387,593.5C 383.597,577.801 389.431,567.301 404.5,562C 411.182,559.925 417.848,558.425 424.5,557.5 Z"/></g>
</svg>
